<svg xmlns="http://www.w3.org/2000/svg" width="1024" height="1024" viewBox="0 0 1024 1024">
  <defs>
    <clipPath id="iconClip">
      <rect x="0" y="0" width="1024" height="1024" rx="224"/>
    </clipPath>
  </defs>

  <rect x="0" y="0" width="1024" height="1024" rx="224" fill="#1a6b47"/>
  <rect x="0" y="512" width="1024" height="512" fill="#0f4a30" clip-path="url(#iconClip)"/>

  <g clip-path="url(#iconClip)">
    <rect x="88"  y="720" width="92" height="220" rx="14" fill="rgba(255,255,255,0.25)"/>
    <rect x="208" y="648" width="92" height="292" rx="14" fill="rgba(255,255,255,0.45)"/>
    <rect x="328" y="576" width="92" height="364" rx="14" fill="rgba(255,255,255,0.7)"/>
    <rect x="448" y="612" width="92" height="328" rx="14" fill="rgba(255,255,255,0.5)"/>
    <rect x="568" y="528" width="92" height="412" rx="14" fill="rgba(255,255,255,0.75)"/>
    <rect x="688" y="472" width="92" height="468" rx="14" fill="rgba(255,255,255,0.9)"/>
    <rect x="808" y="552" width="92" height="388" rx="14" fill="rgba(255,255,255,0.55)"/>

    <path d="M460 420 Q490 320 540 260 Q500 285 440 300 Q390 312 360 335 Q410 322 435 328 Q400 350 375 395 Q415 372 450 365 Q455 392 460 420Z" fill="#3dbf7e"/>
    <path d="M540 260 Q580 170 635 140 Q600 172 585 220 Q565 245 540 260Z" fill="#4fd98e"/>
    <path d="M540 260 Q565 200 605 150 Q575 175 555 215 Q546 238 540 260Z" fill="#2da865"/>
    <path d="M540 260 Q515 225 470 195 Q505 212 530 242 Q536 251 540 260Z" fill="#4fd98e"/>
    <path d="M540 260 Q580 245 635 228 Q598 240 568 256 Q554 260 540 260Z" fill="#2da865"/>
    <path d="M540 260 Q525 310 518 375 Q532 318 545 288 Q544 273 540 260Z" fill="#f5c842"/>
    <path d="M540 260 Q555 310 560 375 Q548 318 540 290 Q538 274 540 260Z" fill="#e0a800"/>

    <circle cx="820" cy="240" r="120" fill="#f5c842"/>
    <circle cx="820" cy="240" r="95"  fill="#e0a800"/>
    <text x="820" y="265" text-anchor="middle" font-family="-apple-system, Arial, sans-serif" font-weight="800" font-size="90" fill="#f5c842">₴</text>
  </g>

  <text x="512" y="930" text-anchor="middle" font-family="-apple-system, 'SF Pro Rounded', Arial Rounded MT Bold, Arial, sans-serif" font-weight="700" font-size="108" letter-spacing="-2" fill="white">фінік</text>
</svg>
